<mxfile host="app.diagrams.net" modified="2021-01-16T11:50:32.681Z" agent="5.0 (Windows NT 10.0; Win64; x64) AppleWebKit/537.36 (KHTML, like Gecko) Chrome/87.0.4280.141 Safari/537.36" etag="THnL-F976sSzsX1MprKg" version="14.2.4" type="github" pages="2">
  <diagram id="C5RBs43oDa-KdzZeNtuy" name="Page-1">
    <mxGraphModel dx="868" dy="520" grid="1" gridSize="10" guides="1" tooltips="1" connect="1" arrows="1" fold="1" page="1" pageScale="1" pageWidth="827" pageHeight="1169" math="0" shadow="0">
      <root>
        <mxCell id="WIyWlLk6GJQsqaUBKTNV-0" />
        <mxCell id="WIyWlLk6GJQsqaUBKTNV-1" parent="WIyWlLk6GJQsqaUBKTNV-0" />
        <mxCell id="N7ikOKo4mURWOuuTpFyr-18" value="" style="edgeStyle=orthogonalEdgeStyle;rounded=0;orthogonalLoop=1;jettySize=auto;html=1;" parent="WIyWlLk6GJQsqaUBKTNV-1" source="N7ikOKo4mURWOuuTpFyr-19" target="N7ikOKo4mURWOuuTpFyr-21" edge="1">
          <mxGeometry relative="1" as="geometry" />
        </mxCell>
        <mxCell id="N7ikOKo4mURWOuuTpFyr-19" value="Mulai" style="ellipse;whiteSpace=wrap;html=1;" parent="WIyWlLk6GJQsqaUBKTNV-1" vertex="1">
          <mxGeometry x="60" y="110" width="120" height="80" as="geometry" />
        </mxCell>
        <mxCell id="N7ikOKo4mURWOuuTpFyr-20" value="" style="edgeStyle=orthogonalEdgeStyle;rounded=0;orthogonalLoop=1;jettySize=auto;html=1;" parent="WIyWlLk6GJQsqaUBKTNV-1" source="N7ikOKo4mURWOuuTpFyr-21" target="N7ikOKo4mURWOuuTpFyr-23" edge="1">
          <mxGeometry relative="1" as="geometry" />
        </mxCell>
        <mxCell id="N7ikOKo4mURWOuuTpFyr-21" value="Input kalimat" style="shape=parallelogram;perimeter=parallelogramPerimeter;whiteSpace=wrap;html=1;fixedSize=1;" parent="WIyWlLk6GJQsqaUBKTNV-1" vertex="1">
          <mxGeometry x="60" y="240" width="120" height="60" as="geometry" />
        </mxCell>
        <mxCell id="N7ikOKo4mURWOuuTpFyr-22" value="" style="edgeStyle=orthogonalEdgeStyle;rounded=0;orthogonalLoop=1;jettySize=auto;html=1;entryX=0;entryY=0.5;entryDx=0;entryDy=0;" parent="WIyWlLk6GJQsqaUBKTNV-1" source="N7ikOKo4mURWOuuTpFyr-23" target="N7ikOKo4mURWOuuTpFyr-28" edge="1">
          <mxGeometry relative="1" as="geometry">
            <mxPoint x="224.99999999999977" y="370" as="targetPoint" />
          </mxGeometry>
        </mxCell>
        <mxCell id="N7ikOKo4mURWOuuTpFyr-23" value="balikan = &#39;&#39;" style="rounded=1;whiteSpace=wrap;html=1;" parent="WIyWlLk6GJQsqaUBKTNV-1" vertex="1">
          <mxGeometry x="60" y="340" width="120" height="60" as="geometry" />
        </mxCell>
        <mxCell id="N7ikOKo4mURWOuuTpFyr-45" value="" style="edgeStyle=orthogonalEdgeStyle;rounded=0;orthogonalLoop=1;jettySize=auto;html=1;" parent="WIyWlLk6GJQsqaUBKTNV-1" source="N7ikOKo4mURWOuuTpFyr-28" target="N7ikOKo4mURWOuuTpFyr-44" edge="1">
          <mxGeometry relative="1" as="geometry" />
        </mxCell>
        <mxCell id="N7ikOKo4mURWOuuTpFyr-28" value="Pisahkan kata dalam kalimat setiap spasi&amp;nbsp;&lt;br&gt;&lt;font color=&quot;#666666&quot;&gt;split(&quot; &quot;)&lt;/font&gt;" style="rounded=1;whiteSpace=wrap;html=1;" parent="WIyWlLk6GJQsqaUBKTNV-1" vertex="1">
          <mxGeometry x="230" y="340" width="140" height="60" as="geometry" />
        </mxCell>
        <mxCell id="N7ikOKo4mURWOuuTpFyr-47" value="" style="edgeStyle=orthogonalEdgeStyle;rounded=0;orthogonalLoop=1;jettySize=auto;html=1;" parent="WIyWlLk6GJQsqaUBKTNV-1" source="N7ikOKo4mURWOuuTpFyr-44" target="N7ikOKo4mURWOuuTpFyr-46" edge="1">
          <mxGeometry relative="1" as="geometry" />
        </mxCell>
        <mxCell id="N7ikOKo4mURWOuuTpFyr-44" value="Balik urutan kalimat&lt;br&gt;&lt;font color=&quot;#666666&quot;&gt;reverse()&lt;/font&gt;" style="whiteSpace=wrap;html=1;rounded=1;" parent="WIyWlLk6GJQsqaUBKTNV-1" vertex="1">
          <mxGeometry x="230" y="240" width="140" height="60" as="geometry" />
        </mxCell>
        <mxCell id="N7ikOKo4mURWOuuTpFyr-49" value="" style="edgeStyle=orthogonalEdgeStyle;rounded=0;orthogonalLoop=1;jettySize=auto;html=1;" parent="WIyWlLk6GJQsqaUBKTNV-1" source="N7ikOKo4mURWOuuTpFyr-46" target="N7ikOKo4mURWOuuTpFyr-48" edge="1">
          <mxGeometry relative="1" as="geometry" />
        </mxCell>
        <mxCell id="N7ikOKo4mURWOuuTpFyr-46" value="Gabungkan dengan pemisah spasi&lt;br&gt;&lt;font color=&quot;#666666&quot;&gt;join(&quot; &quot;)&lt;/font&gt;" style="whiteSpace=wrap;html=1;rounded=1;" parent="WIyWlLk6GJQsqaUBKTNV-1" vertex="1">
          <mxGeometry x="230" y="130" width="140" height="60" as="geometry" />
        </mxCell>
        <mxCell id="N7ikOKo4mURWOuuTpFyr-52" value="" style="edgeStyle=orthogonalEdgeStyle;rounded=0;orthogonalLoop=1;jettySize=auto;html=1;" parent="WIyWlLk6GJQsqaUBKTNV-1" source="N7ikOKo4mURWOuuTpFyr-48" target="N7ikOKo4mURWOuuTpFyr-50" edge="1">
          <mxGeometry relative="1" as="geometry" />
        </mxCell>
        <mxCell id="N7ikOKo4mURWOuuTpFyr-48" value="Simpan nilai dalam variabel balikan" style="rounded=1;whiteSpace=wrap;html=1;" parent="WIyWlLk6GJQsqaUBKTNV-1" vertex="1">
          <mxGeometry x="410" y="130" width="120" height="60" as="geometry" />
        </mxCell>
        <mxCell id="N7ikOKo4mURWOuuTpFyr-53" value="" style="edgeStyle=orthogonalEdgeStyle;rounded=0;orthogonalLoop=1;jettySize=auto;html=1;" parent="WIyWlLk6GJQsqaUBKTNV-1" source="N7ikOKo4mURWOuuTpFyr-50" target="N7ikOKo4mURWOuuTpFyr-51" edge="1">
          <mxGeometry relative="1" as="geometry" />
        </mxCell>
        <mxCell id="N7ikOKo4mURWOuuTpFyr-50" value="output balikan" style="shape=parallelogram;perimeter=parallelogramPerimeter;whiteSpace=wrap;html=1;fixedSize=1;" parent="WIyWlLk6GJQsqaUBKTNV-1" vertex="1">
          <mxGeometry x="410" y="240" width="120" height="60" as="geometry" />
        </mxCell>
        <mxCell id="N7ikOKo4mURWOuuTpFyr-51" value="Selesai" style="ellipse;whiteSpace=wrap;html=1;" parent="WIyWlLk6GJQsqaUBKTNV-1" vertex="1">
          <mxGeometry x="410" y="330" width="120" height="70" as="geometry" />
        </mxCell>
      </root>
    </mxGraphModel>
  </diagram>
  <diagram id="BG_eg-D3b0B2CwqufdKH" name="Page-2">
    <mxGraphModel dx="868" dy="463" grid="1" gridSize="10" guides="1" tooltips="1" connect="1" arrows="1" fold="1" page="1" pageScale="1" pageWidth="827" pageHeight="1169" math="0" shadow="0">
      <root>
        <mxCell id="RVGVUoHVM1yK-ndg8Tfg-0" />
        <mxCell id="RVGVUoHVM1yK-ndg8Tfg-1" parent="RVGVUoHVM1yK-ndg8Tfg-0" />
        <mxCell id="RVGVUoHVM1yK-ndg8Tfg-6" style="edgeStyle=orthogonalEdgeStyle;rounded=0;orthogonalLoop=1;jettySize=auto;html=1;endArrow=none;endFill=0;" edge="1" parent="RVGVUoHVM1yK-ndg8Tfg-1" source="RVGVUoHVM1yK-ndg8Tfg-3" target="RVGVUoHVM1yK-ndg8Tfg-4">
          <mxGeometry relative="1" as="geometry" />
        </mxCell>
        <mxCell id="RVGVUoHVM1yK-ndg8Tfg-3" value="" style="pointerEvents=1;verticalLabelPosition=bottom;shadow=0;dashed=0;align=center;html=1;verticalAlign=top;shape=mxgraph.electrical.resistors.resistor_2;" vertex="1" parent="RVGVUoHVM1yK-ndg8Tfg-1">
          <mxGeometry x="190" y="150" width="100" height="20" as="geometry" />
        </mxCell>
        <mxCell id="RVGVUoHVM1yK-ndg8Tfg-4" value="" style="pointerEvents=1;verticalLabelPosition=bottom;shadow=0;dashed=0;align=center;html=1;verticalAlign=top;shape=mxgraph.electrical.resistors.resistor_2;" vertex="1" parent="RVGVUoHVM1yK-ndg8Tfg-1">
          <mxGeometry x="350" y="150" width="100" height="20" as="geometry" />
        </mxCell>
        <mxCell id="RVGVUoHVM1yK-ndg8Tfg-9" style="edgeStyle=orthogonalEdgeStyle;rounded=0;orthogonalLoop=1;jettySize=auto;html=1;endArrow=none;endFill=0;" edge="1" parent="RVGVUoHVM1yK-ndg8Tfg-1" source="RVGVUoHVM1yK-ndg8Tfg-5">
          <mxGeometry relative="1" as="geometry">
            <mxPoint x="320" y="160" as="targetPoint" />
          </mxGeometry>
        </mxCell>
        <mxCell id="RVGVUoHVM1yK-ndg8Tfg-5" value="" style="pointerEvents=1;verticalLabelPosition=bottom;shadow=0;dashed=0;align=center;html=1;verticalAlign=top;shape=mxgraph.electrical.resistors.resistor_2;rotation=90;" vertex="1" parent="RVGVUoHVM1yK-ndg8Tfg-1">
          <mxGeometry x="270" y="230" width="100" height="20" as="geometry" />
        </mxCell>
        <mxCell id="RVGVUoHVM1yK-ndg8Tfg-11" style="edgeStyle=orthogonalEdgeStyle;rounded=0;orthogonalLoop=1;jettySize=auto;html=1;entryX=0;entryY=0.5;entryDx=0;entryDy=0;entryPerimeter=0;endArrow=none;endFill=0;" edge="1" parent="RVGVUoHVM1yK-ndg8Tfg-1" source="RVGVUoHVM1yK-ndg8Tfg-10">
          <mxGeometry relative="1" as="geometry">
            <mxPoint x="210" y="160" as="targetPoint" />
            <Array as="points">
              <mxPoint x="160" y="160" />
            </Array>
          </mxGeometry>
        </mxCell>
        <mxCell id="RVGVUoHVM1yK-ndg8Tfg-17" style="edgeStyle=orthogonalEdgeStyle;rounded=0;orthogonalLoop=1;jettySize=auto;html=1;entryX=1;entryY=0.5;entryDx=0;entryDy=0;entryPerimeter=0;endArrow=none;endFill=0;exitX=0;exitY=0.5;exitDx=0;exitDy=0;exitPerimeter=0;" edge="1" parent="RVGVUoHVM1yK-ndg8Tfg-1" source="RVGVUoHVM1yK-ndg8Tfg-10" target="RVGVUoHVM1yK-ndg8Tfg-5">
          <mxGeometry relative="1" as="geometry">
            <Array as="points">
              <mxPoint x="160" y="310" />
              <mxPoint x="320" y="310" />
            </Array>
          </mxGeometry>
        </mxCell>
        <mxCell id="RVGVUoHVM1yK-ndg8Tfg-10" value="" style="verticalLabelPosition=bottom;shadow=0;dashed=0;align=center;fillColor=#000000;html=1;verticalAlign=top;strokeWidth=1;shape=mxgraph.electrical.miscellaneous.monocell_battery;rotation=-90;" vertex="1" parent="RVGVUoHVM1yK-ndg8Tfg-1">
          <mxGeometry x="110" y="200" width="100" height="60" as="geometry" />
        </mxCell>
        <mxCell id="RVGVUoHVM1yK-ndg8Tfg-14" style="edgeStyle=orthogonalEdgeStyle;rounded=0;orthogonalLoop=1;jettySize=auto;html=1;entryX=1;entryY=0.5;entryDx=0;entryDy=0;entryPerimeter=0;endArrow=none;endFill=0;" edge="1" parent="RVGVUoHVM1yK-ndg8Tfg-1" source="RVGVUoHVM1yK-ndg8Tfg-12" target="RVGVUoHVM1yK-ndg8Tfg-4">
          <mxGeometry relative="1" as="geometry" />
        </mxCell>
        <mxCell id="RVGVUoHVM1yK-ndg8Tfg-15" style="edgeStyle=orthogonalEdgeStyle;rounded=0;orthogonalLoop=1;jettySize=auto;html=1;entryX=1;entryY=0.5;entryDx=0;entryDy=0;entryPerimeter=0;endArrow=none;endFill=0;" edge="1" parent="RVGVUoHVM1yK-ndg8Tfg-1" source="RVGVUoHVM1yK-ndg8Tfg-12" target="RVGVUoHVM1yK-ndg8Tfg-5">
          <mxGeometry relative="1" as="geometry">
            <Array as="points">
              <mxPoint x="480" y="310" />
              <mxPoint x="320" y="310" />
            </Array>
          </mxGeometry>
        </mxCell>
        <mxCell id="RVGVUoHVM1yK-ndg8Tfg-12" value="" style="verticalLabelPosition=bottom;shadow=0;dashed=0;align=center;fillColor=#000000;html=1;verticalAlign=top;strokeWidth=1;shape=mxgraph.electrical.miscellaneous.monocell_battery;rotation=-90;" vertex="1" parent="RVGVUoHVM1yK-ndg8Tfg-1">
          <mxGeometry x="430" y="200" width="100" height="60" as="geometry" />
        </mxCell>
        <mxCell id="RVGVUoHVM1yK-ndg8Tfg-18" value="&lt;div style=&quot;text-align: center&quot;&gt;&lt;span style=&quot;color: rgb(33 , 37 , 41) ; font-family: , , &amp;#34;segoe ui&amp;#34; , &amp;#34;roboto&amp;#34; , &amp;#34;helvetica neue&amp;#34; , &amp;#34;arial&amp;#34; , &amp;#34;noto sans&amp;#34; , &amp;#34;liberation sans&amp;#34; , sans-serif , &amp;#34;apple color emoji&amp;#34; , &amp;#34;segoe ui emoji&amp;#34; , &amp;#34;segoe ui symbol&amp;#34; , &amp;#34;noto color emoji&amp;#34; ; font-size: 16px ; text-align: left ; background-color: rgb(255 , 255 , 255)&quot;&gt;2Ω&lt;/span&gt;&lt;br&gt;&lt;/div&gt;" style="text;html=1;align=center;verticalAlign=middle;resizable=0;points=[];autosize=1;" vertex="1" parent="RVGVUoHVM1yK-ndg8Tfg-1">
          <mxGeometry x="270" y="220" width="40" height="20" as="geometry" />
        </mxCell>
        <mxCell id="RVGVUoHVM1yK-ndg8Tfg-19" value="&lt;div style=&quot;text-align: center&quot;&gt;&lt;span style=&quot;color: rgb(33 , 37 , 41) ; font-family: , , &amp;#34;segoe ui&amp;#34; , &amp;#34;roboto&amp;#34; , &amp;#34;helvetica neue&amp;#34; , &amp;#34;arial&amp;#34; , &amp;#34;noto sans&amp;#34; , &amp;#34;liberation sans&amp;#34; , sans-serif , &amp;#34;apple color emoji&amp;#34; , &amp;#34;segoe ui emoji&amp;#34; , &amp;#34;segoe ui symbol&amp;#34; , &amp;#34;noto color emoji&amp;#34; ; font-size: 16px ; text-align: left ; background-color: rgb(255 , 255 , 255)&quot;&gt;2Ω&lt;/span&gt;&lt;br&gt;&lt;/div&gt;" style="text;html=1;align=center;verticalAlign=middle;resizable=0;points=[];autosize=1;" vertex="1" parent="RVGVUoHVM1yK-ndg8Tfg-1">
          <mxGeometry x="210" y="120" width="40" height="20" as="geometry" />
        </mxCell>
        <mxCell id="RVGVUoHVM1yK-ndg8Tfg-20" value="&lt;div style=&quot;text-align: center&quot;&gt;&lt;span style=&quot;color: rgb(33 , 37 , 41) ; font-family: , , &amp;#34;segoe ui&amp;#34; , &amp;#34;roboto&amp;#34; , &amp;#34;helvetica neue&amp;#34; , &amp;#34;arial&amp;#34; , &amp;#34;noto sans&amp;#34; , &amp;#34;liberation sans&amp;#34; , sans-serif , &amp;#34;apple color emoji&amp;#34; , &amp;#34;segoe ui emoji&amp;#34; , &amp;#34;segoe ui symbol&amp;#34; , &amp;#34;noto color emoji&amp;#34; ; font-size: 16px ; text-align: left ; background-color: rgb(255 , 255 , 255)&quot;&gt;1Ω&lt;/span&gt;&lt;br&gt;&lt;/div&gt;" style="text;html=1;align=center;verticalAlign=middle;resizable=0;points=[];autosize=1;" vertex="1" parent="RVGVUoHVM1yK-ndg8Tfg-1">
          <mxGeometry x="380" y="120" width="40" height="20" as="geometry" />
        </mxCell>
        <mxCell id="RVGVUoHVM1yK-ndg8Tfg-21" value="&lt;div style=&quot;text-align: center&quot;&gt;&lt;span style=&quot;color: rgb(33 , 37 , 41) ; font-family: , , &amp;#34;segoe ui&amp;#34; , &amp;#34;roboto&amp;#34; , &amp;#34;helvetica neue&amp;#34; , &amp;#34;arial&amp;#34; , &amp;#34;noto sans&amp;#34; , &amp;#34;liberation sans&amp;#34; , sans-serif , &amp;#34;apple color emoji&amp;#34; , &amp;#34;segoe ui emoji&amp;#34; , &amp;#34;segoe ui symbol&amp;#34; , &amp;#34;noto color emoji&amp;#34; ; font-size: 16px ; text-align: left ; background-color: rgb(255 , 255 , 255)&quot;&gt;8V&lt;/span&gt;&lt;br&gt;&lt;/div&gt;" style="text;html=1;align=center;verticalAlign=middle;resizable=0;points=[];autosize=1;" vertex="1" parent="RVGVUoHVM1yK-ndg8Tfg-1">
          <mxGeometry x="520" y="220" width="40" height="20" as="geometry" />
        </mxCell>
        <mxCell id="RVGVUoHVM1yK-ndg8Tfg-22" value="&lt;div style=&quot;text-align: center&quot;&gt;&lt;span style=&quot;color: rgb(33 , 37 , 41) ; font-family: , , &amp;#34;segoe ui&amp;#34; , &amp;#34;roboto&amp;#34; , &amp;#34;helvetica neue&amp;#34; , &amp;#34;arial&amp;#34; , &amp;#34;noto sans&amp;#34; , &amp;#34;liberation sans&amp;#34; , sans-serif , &amp;#34;apple color emoji&amp;#34; , &amp;#34;segoe ui emoji&amp;#34; , &amp;#34;segoe ui symbol&amp;#34; , &amp;#34;noto color emoji&amp;#34; ; font-size: 16px ; text-align: left ; background-color: rgb(255 , 255 , 255)&quot;&gt;6V&lt;/span&gt;&lt;br&gt;&lt;/div&gt;" style="text;html=1;align=center;verticalAlign=middle;resizable=0;points=[];autosize=1;" vertex="1" parent="RVGVUoHVM1yK-ndg8Tfg-1">
          <mxGeometry x="90" y="220" width="40" height="20" as="geometry" />
        </mxCell>
        <mxCell id="RVGVUoHVM1yK-ndg8Tfg-24" value="&lt;span style=&quot;color: rgb(33 , 37 , 41) ; font-size: 16px ; text-align: left ; background-color: rgb(255 , 255 , 255)&quot;&gt;i1&lt;/span&gt;" style="text;html=1;align=center;verticalAlign=middle;resizable=0;points=[];autosize=1;" vertex="1" parent="RVGVUoHVM1yK-ndg8Tfg-1">
          <mxGeometry x="160" y="200" width="30" height="20" as="geometry" />
        </mxCell>
      </root>
    </mxGraphModel>
  </diagram>
</mxfile>
